<svg xmlns="http://www.w3.org/2000/svg" width="20" height="20" viewBox="0 0 20 20">
  <g id="Group_1189" data-name="Group 1189" transform="translate(-2508 -7477)">
    <rect id="Rectangle_749" data-name="Rectangle 749" width="20" height="20" transform="translate(2508 7477)" fill="none"/>
    <path id="contacts_FILL1_wght400_GRAD0_opsz24" d="M4.182,17a.727.727,0,1,1,0-1.455H14.364a.727.727,0,1,1,0,1.455Zm0-14.545a.714.714,0,0,1-.727-.727A.713.713,0,0,1,4.182,1H14.364a.714.714,0,0,1,.727.727.715.715,0,0,1-.727.727ZM9.273,9.727a2.173,2.173,0,0,0,2.182-2.182A2.173,2.173,0,0,0,9.273,5.364,2.173,2.173,0,0,0,7.091,7.545,2.173,2.173,0,0,0,9.273,9.727ZM3.455,14.818A1.459,1.459,0,0,1,2,13.364V4.636a1.4,1.4,0,0,1,.428-1.027,1.4,1.4,0,0,1,1.027-.428H15.091a1.459,1.459,0,0,1,1.455,1.455v8.727a1.458,1.458,0,0,1-1.455,1.455Zm1.273-1.455h9.091a5.9,5.9,0,0,0-1.982-1.6,5.651,5.651,0,0,0-2.564-.582,5.651,5.651,0,0,0-2.564.582A5.9,5.9,0,0,0,4.727,13.364Z" transform="translate(2509 7478)" fill="#f58220"/>
  </g>
</svg>
