<svg xmlns="http://www.w3.org/2000/svg" width="20" height="20" viewBox="0 0 20 20">
  <g id="Group_1190" data-name="Group 1190" transform="translate(-2491 -7551)">
    <rect id="Rectangle_750" data-name="Rectangle 750" width="20" height="20" transform="translate(2491 7551)" fill="none"/>
    <path id="mail_FILL1_wght400_GRAD0_opsz24" d="M3.5,16A1.5,1.5,0,0,1,2,14.5v-9a1.443,1.443,0,0,1,.441-1.059A1.443,1.443,0,0,1,3.5,4h12A1.5,1.5,0,0,1,17,5.5v9A1.5,1.5,0,0,1,15.5,16Zm6-5.381a.735.735,0,0,0,.2-.029.769.769,0,0,0,.2-.084L15.2,7.187a.621.621,0,0,0,.225-.234.649.649,0,0,0,.075-.31.611.611,0,0,0-.319-.562.6.6,0,0,0-.656.019L9.5,9.25,4.475,6.1a.585.585,0,0,0-.656-.01.618.618,0,0,0-.319.554.685.685,0,0,0,.075.328.5.5,0,0,0,.225.216l5.306,3.319a.769.769,0,0,0,.2.084A.735.735,0,0,0,9.5,10.619Z" transform="translate(2492 7551)" fill="#f58220"/>
  </g>
</svg>
