<svg xmlns="http://www.w3.org/2000/svg" width="24" height="24" viewBox="0 0 24 24">
  <g id="Group_1193" data-name="Group 1193" transform="translate(-353 -4755)">
    <rect id="Rectangle_751" data-name="Rectangle 751" width="24" height="24" transform="translate(353 4755)" fill="none"/>
    <path id="Exclusion_1" data-name="Exclusion 1" d="M18,20H2a2,2,0,0,1-2-2V2A2,2,0,0,1,2,0H18a2,2,0,0,1,2,2V18A2,2,0,0,1,18,20ZM11.1,8.954c1.158,0,1.307,1.1,1.307,2.053v3.732h2.333v-4.2a4.555,4.555,0,0,0-.094-1.12c-.218-1.635-1.055-2.333-2.8-2.333a2.6,2.6,0,0,0-2.24,1.027V7.088H7.461v7.652H9.7V10.913C9.7,10.072,9.845,8.954,11.1,8.954ZM3.262,7.088v7.652H5.968V7.088Zm1.4-3.826a1.436,1.436,0,0,0-1.4,1.4,1.428,1.428,0,0,0,1.4,1.307A1.4,1.4,0,0,0,5.968,4.661,1.428,1.428,0,0,0,4.661,3.262Z" transform="translate(355 4757)" fill="#f58220"/>
  </g>
</svg>
