<svg xmlns="http://www.w3.org/2000/svg" width="24" height="24" viewBox="0 0 24 24">
  <g id="Group_1194" data-name="Group 1194" transform="translate(-2510 -7706)">
    <path id="Path_6" data-name="Path 6" d="M24.986,10.2a9.267,9.267,0,0,0-.992-4.5,3.183,3.183,0,0,0-1.875-1.09,85.432,85.432,0,0,0-9.125-.338A85.523,85.523,0,0,0,3.9,4.6,3.129,3.129,0,0,0,2.309,5.4c-.981.9-1.09,2.453-1.2,3.761a52.645,52.645,0,0,0,0,7.065,10.412,10.412,0,0,0,.327,2.18,3.423,3.423,0,0,0,.774,1.483,3.118,3.118,0,0,0,1.624.85,49.256,49.256,0,0,0,7.086.36c3.816.055,7.163,0,11.12-.305a3.14,3.14,0,0,0,1.668-.85,2.715,2.715,0,0,0,.665-1.09,11.534,11.534,0,0,0,.567-3.707C24.986,14.541,24.986,10.856,24.986,10.2Zm-14.456,5.6V9.057l6.454,3.391C15.174,13.451,12.786,14.585,10.529,15.806Z" transform="translate(2509.009 7705.742)" fill="#f58220"/>
    <rect id="Rectangle_751" data-name="Rectangle 751" width="24" height="24" transform="translate(2510 7706)" fill="none"/>
  </g>
</svg>
