<svg xmlns="http://www.w3.org/2000/svg" width="20" height="20" viewBox="0 0 20 20">
  <g id="Group_1188" data-name="Group 1188" transform="translate(-2496 -7342)">
    <path id="pin_drop_FILL1_wght400_GRAD0_opsz24" d="M10.6,15.32a1.125,1.125,0,0,1-.34-.05,1.047,1.047,0,0,1-.3-.15,16.871,16.871,0,0,1-3.73-3.78A6.5,6.5,0,0,1,5,7.72a5.726,5.726,0,0,1,.51-2.49A5.63,5.63,0,0,1,6.82,3.44a5.4,5.4,0,0,1,1.8-1.08,5.625,5.625,0,0,1,3.96,0,5.4,5.4,0,0,1,1.8,1.08,5.64,5.64,0,0,1,1.31,1.79,5.734,5.734,0,0,1,.51,2.49,6.5,6.5,0,0,1-1.23,3.62,16.871,16.871,0,0,1-3.73,3.78.794.794,0,0,1-.29.15A1.229,1.229,0,0,1,10.6,15.32Zm0-6.12a1.6,1.6,0,0,0,1.6-1.6A1.6,1.6,0,0,0,9.47,6.47a1.592,1.592,0,0,0,0,2.26A1.539,1.539,0,0,0,10.6,9.2ZM5.8,18a.8.8,0,1,1,0-1.6h9.6a.8.8,0,1,1,0,1.6Z" transform="translate(2495 7342)" fill="#f58220"/>
    <rect id="Rectangle_748" data-name="Rectangle 748" width="20" height="20" transform="translate(2496 7342)" fill="none"/>
  </g>
</svg>
