<svg id="Group_1197" data-name="Group 1197" xmlns="http://www.w3.org/2000/svg" width="39.994" height="40" viewBox="0 0 39.994 40">
  <path id="Subtraction_6" data-name="Subtraction 6" d="M15.752,39.541H7.631A7.63,7.63,0,0,1,0,31.957H4.884a.679.679,0,1,0,0-1.358H0V9.041H4.884a.679.679,0,1,0,0-1.358H0V7.631A7.631,7.631,0,0,1,7.631,0H31.91a7.63,7.63,0,0,1,7.63,7.631v.052H34.657a.679.679,0,0,0,0,1.358H39.54V30.6H34.657a.679.679,0,0,0,0,1.358H39.54a7.63,7.63,0,0,1-7.63,7.583H20.966V31.957h.184a6.2,6.2,0,0,0,5.061,2.362c4.416,0,7.5-3.611,7.5-8.781,0-5.134-3.084-8.72-7.5-8.72a6.006,6.006,0,0,0-5.245,2.653V17.062H15.752V39.54ZM8.387,30.6a.679.679,0,1,0,0,1.358h5.254a.679.679,0,1,0,0-1.358ZM25.9,7.683a.679.679,0,1,0,0,1.358h5.254a.679.679,0,1,0,0-1.358Zm-8.757,0a.679.679,0,1,0,0,1.358H22.4a.679.679,0,1,0,0-1.358Zm-8.757,0a.679.679,0,1,0,0,1.358h5.254a.679.679,0,1,0,0-1.358Zm16.27,22.093a3.559,3.559,0,0,1-2.592-1.086,4.387,4.387,0,0,1-1.128-3.121,4.387,4.387,0,0,1,1.128-3.122,3.559,3.559,0,0,1,2.592-1.086,3.622,3.622,0,0,1,2.618,1.071,4.325,4.325,0,0,1,1.132,3.106,4.422,4.422,0,0,1-1.132,3.137A3.586,3.586,0,0,1,24.657,29.776Z" transform="translate(0.227 0)" fill="#f58220"/>
  <path id="Subtraction_6_-_Outline" data-name="Subtraction 6 - Outline" d="M-5954.523,39.494h-8.124a7.806,7.806,0,0,1-5.537-2.285,7.8,7.8,0,0,1-2.317-5.523v-.228h5.111a.454.454,0,0,0,.453-.453.454.454,0,0,0-.453-.453h-5.111V8.541h5.111a.454.454,0,0,0,.453-.453.454.454,0,0,0-.453-.453h-5.111V7.357a7.8,7.8,0,0,1,2.3-5.556,7.8,7.8,0,0,1,5.552-2.3h24.28a7.811,7.811,0,0,1,5.559,2.3,7.812,7.812,0,0,1,2.3,5.556v.279h-5.112a.453.453,0,0,0-.452.453.453.453,0,0,0,.452.453h5.112V30.552h-5.112a.453.453,0,0,0-.452.453.453.453,0,0,0,.452.453h5.112v.228a7.813,7.813,0,0,1-2.318,5.523,7.809,7.809,0,0,1-5.541,2.285h-11.169V31.457h.522l.071.091a5.976,5.976,0,0,0,4.88,2.271c4.282,0,7.271-3.518,7.271-8.555,0-5-2.988-8.494-7.271-8.494a5.784,5.784,0,0,0-5.055,2.547l-.418.66V17.015h-4.76V39.493Zm-15.52-7.584a7.348,7.348,0,0,0,2.179,4.977,7.355,7.355,0,0,0,5.217,2.153h7.9V16.562h5.668V18.5a6.359,6.359,0,0,1,5.02-2.182,7.463,7.463,0,0,1,3.127.661,7.13,7.13,0,0,1,2.45,1.852,8.481,8.481,0,0,1,1.584,2.832,11.175,11.175,0,0,1,.563,3.6,11.32,11.32,0,0,1-.563,3.625,8.555,8.555,0,0,1-1.584,2.851,7.113,7.113,0,0,1-2.45,1.865,7.409,7.409,0,0,1-3.127.666,6.491,6.491,0,0,1-5.02-2.172V39.04h10.715a7.363,7.363,0,0,0,5.222-2.153,7.345,7.345,0,0,0,2.178-4.977h-4.653a.905.905,0,0,1-.9-.906.905.905,0,0,1,.9-.906h4.659V8.994h-4.659a.905.905,0,0,1-.9-.906.905.905,0,0,1,.9-.906h4.657a7.357,7.357,0,0,0-2.167-5.061,7.356,7.356,0,0,0-5.237-2.169h-24.28a7.36,7.36,0,0,0-5.234,2.169,7.356,7.356,0,0,0-2.166,5.061h4.656a.906.906,0,0,1,.906.906.906.906,0,0,1-.906.906h-4.658V30.1h4.658a.906.906,0,0,1,.906.906.906.906,0,0,1-.906.906Zm13.408,0h-5.254a.9.9,0,0,1-.9-.906.9.9,0,0,1,.9-.906h5.254a.906.906,0,0,1,.907.906A.906.906,0,0,1-5956.635,31.91Zm-5.254-1.358a.454.454,0,0,0-.453.453.454.454,0,0,0,.453.453h5.254a.453.453,0,0,0,.453-.453.453.453,0,0,0-.453-.453Zm16.271-.823a3.785,3.785,0,0,1-2.756-1.156,4.611,4.611,0,0,1-1.191-3.278,4.611,4.611,0,0,1,1.191-3.279,3.785,3.785,0,0,1,2.756-1.156A3.841,3.841,0,0,1-5942.841,22a4.542,4.542,0,0,1,1.2,3.265,4.635,4.635,0,0,1-1.2,3.293A3.8,3.8,0,0,1-5945.618,29.729Zm0-8.416a3.336,3.336,0,0,0-2.429,1.017,4.171,4.171,0,0,0-1.066,2.965,4.171,4.171,0,0,0,1.066,2.964,3.335,3.335,0,0,0,2.429,1.017,3.367,3.367,0,0,0,2.455-1.032,4.209,4.209,0,0,0,1.066-2.98,4.1,4.1,0,0,0-1.066-2.948A3.4,3.4,0,0,0-5945.618,21.313Zm6.5-12.319h-5.254a.907.907,0,0,1-.907-.906.907.907,0,0,1,.907-.906h5.254a.907.907,0,0,1,.906.906A.907.907,0,0,1-5939.121,8.994Zm-5.254-1.358a.454.454,0,0,0-.453.453.454.454,0,0,0,.453.453h5.254a.454.454,0,0,0,.454-.453.454.454,0,0,0-.454-.453Zm-3.5,1.358h-5.255a.906.906,0,0,1-.9-.906.906.906,0,0,1,.9-.906h5.255a.906.906,0,0,1,.906.906A.906.906,0,0,1-5947.878,8.994Zm-5.255-1.358a.454.454,0,0,0-.452.453.454.454,0,0,0,.452.453h5.255a.453.453,0,0,0,.452-.453.453.453,0,0,0-.452-.453Zm-3.5,1.358h-5.254a.9.9,0,0,1-.9-.906.9.9,0,0,1,.9-.906h5.254a.906.906,0,0,1,.907.906A.906.906,0,0,1-5956.635,8.994Zm-5.254-1.358a.454.454,0,0,0-.453.453.454.454,0,0,0,.453.453h5.254a.453.453,0,0,0,.453-.453.453.453,0,0,0-.453-.453Z" transform="translate(5970.502 0.506)" fill="rgba(0,0,0,0)"/>
</svg>
