<svg xmlns="http://www.w3.org/2000/svg" width="146.281" height="32" viewBox="0 0 146.281 32">
  <g id="Group_190" data-name="Group 190" transform="translate(-203.092 -80.069)">
    <g id="Group_21" data-name="Group 21" transform="translate(203.092 80.069)">
      <path id="Subtraction_6" data-name="Subtraction 6" d="M12.6,31.633H6.1A6.1,6.1,0,0,1,0,25.565H3.907a.543.543,0,1,0,0-1.086H0V7.233H3.907a.544.544,0,1,0,0-1.087H0V6.1A6.112,6.112,0,0,1,6.1,0H25.528a6.112,6.112,0,0,1,6.1,6.1v.041H27.725a.544.544,0,1,0,0,1.087h3.907V24.479H27.725a.543.543,0,1,0,0,1.086h3.907a6.1,6.1,0,0,1-6.1,6.067H16.773V25.565h.146a4.963,4.963,0,0,0,4.049,1.89c3.533,0,6-2.889,6-7.025,0-4.107-2.467-6.976-6-6.976a4.8,4.8,0,0,0-4.2,2.122V13.649H12.6V31.632ZM6.71,24.479a.543.543,0,1,0,0,1.086h4.2a.543.543,0,1,0,0-1.086ZM20.72,6.146a.544.544,0,1,0,0,1.087h4.2a.544.544,0,1,0,0-1.087Zm-7.006,0a.544.544,0,0,0,0,1.087h4.2a.544.544,0,0,0,0-1.087Zm-7,0a.544.544,0,1,0,0,1.087h4.2a.544.544,0,1,0,0-1.087ZM19.725,23.821a3.042,3.042,0,0,1-2.976-3.367,3.041,3.041,0,0,1,2.976-3.366,2.9,2.9,0,0,1,2.094.857,3.46,3.46,0,0,1,.906,2.485A3.064,3.064,0,0,1,19.725,23.821Z" transform="translate(0.182 0)" fill="#f58220"/>
      <path id="Subtraction_6_-_Outline" data-name="Subtraction 6 - Outline" d="M-5957.719,31.495h-6.5a6.245,6.245,0,0,1-4.43-1.828,6.238,6.238,0,0,1-1.854-4.418v-.182h4.089a.363.363,0,0,0,.362-.362.363.363,0,0,0-.362-.362h-4.089V6.733h4.089a.363.363,0,0,0,.362-.362.363.363,0,0,0-.362-.362h-4.089V5.786a6.237,6.237,0,0,1,1.843-4.445A6.236,6.236,0,0,1-5964.218-.5h19.424a6.248,6.248,0,0,1,4.447,1.841,6.25,6.25,0,0,1,1.84,4.445v.223h-4.09a.362.362,0,0,0-.361.362.362.362,0,0,0,.361.362h4.09V24.341h-4.09a.362.362,0,0,0-.361.362.362.362,0,0,0,.361.362h4.09v.182a6.25,6.25,0,0,1-1.854,4.418,6.247,6.247,0,0,1-4.433,1.828h-8.936V25.066h.418l.057.072a4.781,4.781,0,0,0,3.9,1.817c3.426,0,5.816-2.814,5.816-6.844,0-4-2.391-6.8-5.816-6.8a4.627,4.627,0,0,0-4.044,2.038l-.335.528V13.512h-3.808V31.495Zm-12.416-6.067a5.877,5.877,0,0,0,1.743,3.982,5.885,5.885,0,0,0,4.174,1.723h6.317V13.149h4.534V14.7a5.088,5.088,0,0,1,4.016-1.746,5.969,5.969,0,0,1,2.5.529,5.705,5.705,0,0,1,1.96,1.482,6.792,6.792,0,0,1,1.268,2.266,8.945,8.945,0,0,1,.45,2.881,9.061,9.061,0,0,1-.45,2.9,6.851,6.851,0,0,1-1.268,2.281,5.691,5.691,0,0,1-1.96,1.492,5.927,5.927,0,0,1-2.5.533,5.193,5.193,0,0,1-4.016-1.738v5.553h8.572a5.89,5.89,0,0,0,4.178-1.723,5.875,5.875,0,0,0,1.742-3.982h-3.723a.724.724,0,0,1-.722-.724.724.724,0,0,1,.722-.724h3.728V7.1h-3.728a.724.724,0,0,1-.722-.724.724.724,0,0,1,.722-.724h3.726A5.886,5.886,0,0,0-5940.6,1.6a5.885,5.885,0,0,0-4.189-1.735h-19.424a5.888,5.888,0,0,0-4.187,1.735,5.886,5.886,0,0,0-1.732,4.049h3.725a.725.725,0,0,1,.725.724.725.725,0,0,1-.725.724h-3.727V23.979h3.727a.725.725,0,0,1,.725.724.725.725,0,0,1-.725.724Zm10.727,0h-4.2a.723.723,0,0,1-.724-.724.723.723,0,0,1,.724-.724h4.2a.725.725,0,0,1,.726.724A.725.725,0,0,1-5959.408,25.428Zm-4.2-1.087a.363.363,0,0,0-.362.362.363.363,0,0,0,.362.362h4.2a.362.362,0,0,0,.362-.362.362.362,0,0,0-.362-.362Zm13.017-.658a3.028,3.028,0,0,1-2.205-.925,3.689,3.689,0,0,1-.953-2.623,3.689,3.689,0,0,1,.953-2.623,3.028,3.028,0,0,1,2.205-.924,3.074,3.074,0,0,1,2.222.911,3.634,3.634,0,0,1,.958,2.612,3.708,3.708,0,0,1-.957,2.635A3.043,3.043,0,0,1-5950.595,23.683Zm0-6.732a2.669,2.669,0,0,0-1.943.813,3.337,3.337,0,0,0-.853,2.372,3.337,3.337,0,0,0,.853,2.371,2.668,2.668,0,0,0,1.943.814,2.694,2.694,0,0,0,1.964-.825,3.368,3.368,0,0,0,.853-2.384,3.283,3.283,0,0,0-.853-2.358A2.718,2.718,0,0,0-5950.595,16.951Zm5.2-9.856h-4.2a.726.726,0,0,1-.726-.724.726.726,0,0,1,.726-.724h4.2a.725.725,0,0,1,.725.724A.725.725,0,0,1-5945.4,7.1Zm-4.2-1.087a.363.363,0,0,0-.362.362.363.363,0,0,0,.362.362h4.2a.363.363,0,0,0,.363-.362.363.363,0,0,0-.363-.362Zm-2.8,1.087h-4.2a.725.725,0,0,1-.723-.724.725.725,0,0,1,.723-.724h4.2a.725.725,0,0,1,.725.724A.725.725,0,0,1-5952.4,7.1Zm-4.2-1.087a.363.363,0,0,0-.361.362.363.363,0,0,0,.361.362h4.2a.362.362,0,0,0,.361-.362.362.362,0,0,0-.361-.362Zm-2.8,1.087h-4.2a.723.723,0,0,1-.724-.724.723.723,0,0,1,.724-.724h4.2a.725.725,0,0,1,.726.724A.725.725,0,0,1-5959.408,7.1Zm-4.2-1.087a.363.363,0,0,0-.362.362.363.363,0,0,0,.362.362h4.2a.362.362,0,0,0,.362-.362.362.362,0,0,0-.362-.362Z" transform="translate(5970.502 0.505)" fill="rgba(0,0,0,0)"/>
      <g id="Group_25" data-name="Group 25" transform="translate(39.847 4.767)">
        <path id="Path_23" data-name="Path 23" d="M7.561-39.372a4.1,4.1,0,0,1,1.525-1.392,4.681,4.681,0,0,1,2.276-.53,5.106,5.106,0,0,1,2.762.773,5.357,5.357,0,0,1,1.956,2.21,7.369,7.369,0,0,1,.718,3.337,7.44,7.44,0,0,1-.718,3.348A5.421,5.421,0,0,1,14.124-29.4a5.052,5.052,0,0,1-2.762.784,4.7,4.7,0,0,1-2.265-.53,4.152,4.152,0,0,1-1.536-1.37v7.6H3.782V-41.118H7.561Zm5.392,4.4a3.05,3.05,0,0,0-.784-2.221A2.591,2.591,0,0,0,10.235-38a2.549,2.549,0,0,0-1.911.818,3.089,3.089,0,0,0-.784,2.232,3.089,3.089,0,0,0,.784,2.232,2.549,2.549,0,0,0,1.911.818,2.568,2.568,0,0,0,1.923-.829A3.1,3.1,0,0,0,12.953-34.975Zm5.083,0a7.369,7.369,0,0,1,.718-3.337,5.357,5.357,0,0,1,1.956-2.21,5.106,5.106,0,0,1,2.762-.773,4.745,4.745,0,0,1,2.287.53,3.907,3.907,0,0,1,1.514,1.392v-1.746h3.779v12.331H27.272v-1.746a4.081,4.081,0,0,1-1.536,1.392,4.745,4.745,0,0,1-2.287.53,5.014,5.014,0,0,1-2.74-.784,5.421,5.421,0,0,1-1.956-2.232A7.439,7.439,0,0,1,18.035-34.975Zm9.237.022a3.089,3.089,0,0,0-.784-2.232A2.549,2.549,0,0,0,24.576-38a2.565,2.565,0,0,0-1.911.807,3.05,3.05,0,0,0-.784,2.221,3.129,3.129,0,0,0,.784,2.243,2.533,2.533,0,0,0,1.911.829,2.549,2.549,0,0,0,1.911-.818A3.089,3.089,0,0,0,27.272-34.953Zm10.3-4.11a4.985,4.985,0,0,1,1.657-1.6,4.274,4.274,0,0,1,2.21-.586v4H40.4a3.184,3.184,0,0,0-2.121.608,2.7,2.7,0,0,0-.707,2.132v5.723H33.791V-41.118H37.57ZM50.784-28.788l-3.757-5.171v5.171H43.249V-45.14h3.779V-36.1l3.735-5.016h4.663L50.3-34.931l5.171,6.143Z" transform="translate(-3.782 45.14)" fill="#f58220"/>
        <path id="Path_24" data-name="Path 24" d="M14.083-28.383a9.646,9.646,0,0,1-.066,1.1H5.465a2.57,2.57,0,0,0,.74,1.757,2.262,2.262,0,0,0,1.6.608,1.986,1.986,0,0,0,1.967-1.193H13.8a5.519,5.519,0,0,1-1.116,2.188,5.587,5.587,0,0,1-2.022,1.525,6.5,6.5,0,0,1-2.718.552,6.614,6.614,0,0,1-3.226-.773,5.5,5.5,0,0,1-2.21-2.21,6.822,6.822,0,0,1-.8-3.359,6.9,6.9,0,0,1,.784-3.359,5.43,5.43,0,0,1,2.2-2.21,6.66,6.66,0,0,1,3.248-.773,6.594,6.594,0,0,1,3.182.751A5.4,5.4,0,0,1,13.3-31.631,6.506,6.506,0,0,1,14.083-28.383Zm-3.867-.994a1.943,1.943,0,0,0-.663-1.547A2.44,2.44,0,0,0,7.9-31.5a2.393,2.393,0,0,0-1.6.552,2.454,2.454,0,0,0-.807,1.569Zm5.1,1.171a7.37,7.37,0,0,1,.718-3.337,5.357,5.357,0,0,1,1.956-2.21,5.106,5.106,0,0,1,2.762-.773,4.745,4.745,0,0,1,2.287.53A3.907,3.907,0,0,1,24.557-32.6v-1.746h3.779v12.331H24.557v-1.746a4.081,4.081,0,0,1-1.536,1.392,4.745,4.745,0,0,1-2.287.53,5.014,5.014,0,0,1-2.74-.784,5.421,5.421,0,0,1-1.956-2.232A7.44,7.44,0,0,1,15.32-28.206Zm9.237.022a3.089,3.089,0,0,0-.784-2.232,2.549,2.549,0,0,0-1.911-.818,2.566,2.566,0,0,0-1.911.807,3.05,3.05,0,0,0-.784,2.221,3.129,3.129,0,0,0,.784,2.243,2.533,2.533,0,0,0,1.911.829,2.549,2.549,0,0,0,1.911-.818A3.089,3.089,0,0,0,24.557-28.184Zm11.535,6.342a7.087,7.087,0,0,1-2.873-.552,4.906,4.906,0,0,1-1.989-1.514,3.982,3.982,0,0,1-.818-2.155h3.735a1.436,1.436,0,0,0,.6,1.039,2.111,2.111,0,0,0,1.3.4,1.861,1.861,0,0,0,1.094-.276.846.846,0,0,0,.387-.718.829.829,0,0,0-.552-.784,11.16,11.16,0,0,0-1.79-.563,16.8,16.8,0,0,1-2.21-.652A3.818,3.818,0,0,1,31.452-28.7a2.951,2.951,0,0,1-.641-2,3.4,3.4,0,0,1,.586-1.934,3.943,3.943,0,0,1,1.724-1.381,6.6,6.6,0,0,1,2.707-.508,5.427,5.427,0,0,1,3.657,1.149,4.471,4.471,0,0,1,1.536,3.05H37.529a1.5,1.5,0,0,0-.564-1.017,1.954,1.954,0,0,0-1.249-.376,1.726,1.726,0,0,0-1.017.254.811.811,0,0,0-.354.7.85.85,0,0,0,.563.8,9.025,9.025,0,0,0,1.757.53,19.22,19.22,0,0,1,2.232.7,3.85,3.85,0,0,1,1.514,1.1,3.126,3.126,0,0,1,.674,2.044,3.244,3.244,0,0,1-.608,1.934,4.019,4.019,0,0,1-1.746,1.337A6.676,6.676,0,0,1,36.092-21.842ZM56-34.349,48.268-16.163H44.2l2.829-6.276L42.014-34.349h4.221l2.851,7.712,2.829-7.712Z" transform="translate(50.431 38.371)"/>
      </g>
    </g>
  </g>
</svg>
