<svg id="Group_1184" data-name="Group 1184" xmlns="http://www.w3.org/2000/svg" xmlns:xlink="http://www.w3.org/1999/xlink" width="392" height="273.525" viewBox="0 0 392 273.525">
  <defs>
    <clipPath id="clip-path">
      <rect id="Rectangle_693" data-name="Rectangle 693" width="392" height="273.525" fill="none"/>
    </clipPath>
  </defs>
  <g id="Group_1123" data-name="Group 1123" transform="translate(0 0)" clip-path="url(#clip-path)">
    <path id="Path_2167" data-name="Path 2167" d="M1871.205,1333.728a3.643,3.643,0,0,1,1.759.563,31.054,31.054,0,0,0,3.218-1.457s8.779-4.333,9.245-4.584l6.336-7.972,4.883,2.252s-7.126,8.476-7.577,8.849-13.038,4.787-14.133,5.213c0,0-1.1,1.009-1.818,1.618a7.566,7.566,0,0,1-1.9.989,7.991,7.991,0,0,1-1.934.678c-.959.209-.16-.443-.16-.443s1.7-.716,1.613-.846c-.064-.1-.966.348-2.025.59-.272.062-.541.123-.788.176-.65.141-.935-.231-.282-.49a6.316,6.316,0,0,1,.909-.294,5.266,5.266,0,0,0,.834-.328,6.86,6.86,0,0,0,.857-.344c-.026-.023.045-.135-.246-.078a16.048,16.048,0,0,1-1.581.443c-.3.034-.912.143-.912.143s-1.089.1-1.1-.048c-.016-.333.654-.52,1.066-.511a4.269,4.269,0,0,1,.911-.228s1.263-.5,1.19-.685a8.934,8.934,0,0,0-1.605.1c-.858.059-1.479.058-1.525-.108-.073-.263.61-.363.61-.363s.6-.088.8-.133c.231-.053.909-.265.909-.265s2.323-.854,2.239-1.025-.468-.53-.632-.529-.456.164-.62.165-.516-.031-.541-.237.885-.633.885-.633a2.576,2.576,0,0,1,1.109-.175" transform="translate(-1585.49 -1121.559)" fill="#f8a492"/>
    <path id="Path_2168" data-name="Path 2168" d="M2005.562,1302.228s1.581,1.436,2.239,1.909c.546.393,3.21,1.676,3.21,1.676s2.65-4.058,3.809-6.093c1.405-2.469,2.379-6.141,2.046-6.24a4.864,4.864,0,0,0-3.4.094c-4.1,1.882-7.9,8.654-7.9,8.654" transform="translate(-1703.699 -1098.572)" fill="#355389"/>
    <path id="Path_2169" data-name="Path 2169" d="M1898.669,1419.965a1.518,1.518,0,0,1-1.735-.667c-.07.764,1.087,1.143,1.735.667" transform="translate(-1611.419 -1205.676)" fill="#fe875e"/>
    <path id="Path_2170" data-name="Path 2170" d="M465.856,1178.916a14.366,14.366,0,0,0-1.3-6.9,5.819,5.819,0,0,0-5.191-2.97c-6.49-.009-7.316,8.6-11.447,11.925-1.262,1.015-2.673,1.842-3.868,2.937-4.411,4.042-2.424,11.524,1.626,15.068,2.811,2.459,7.228,3.856,10.692,1.934a10.92,10.92,0,0,0,4.159-4.5,61.638,61.638,0,0,0,3.27-8.351,31.276,31.276,0,0,0,2.061-9.147" transform="translate(-375.09 -993.093)" fill="#13375b"/>
    <path id="Path_2171" data-name="Path 2171" d="M583.542,1276.467c-2.027-6.15-4.7-6.054-4.7-6.054L581,1283.508c1.252-.342,2.882-1.1,4.132-1.457a56.309,56.309,0,0,0-1.591-5.584" transform="translate(-491.715 -1079.2)" fill="#f7cc7f"/>
    <path id="Path_2172" data-name="Path 2172" d="M605.991,1361.888l-7.411-5.654s-.745-5.274-1.744-9.955c-1.25.353-2.379,1.334-3.631,1.676l1.885,10.482,9.714,5.011,2.744,3.526.624-3.62Z" transform="translate(-503.92 -1143.647)" fill="#f48c7f"/>
    <path id="Path_2173" data-name="Path 2173" d="M678.635,1006.111a12.765,12.765,0,0,1,6.328,1.667,6.678,6.678,0,0,0,.765.369A8.718,8.718,0,0,0,697.654,1000V969.719H667.375a8.719,8.719,0,0,1-8.15-11.927,6.707,6.707,0,0,1,.369-.765,12.838,12.838,0,1,0-22.431-.159,7.14,7.14,0,0,1,.365.778,8.872,8.872,0,0,1-8.317,12.073H599.192v68.993a29.469,29.469,0,0,0,29.469,29.469h68.994V1038a8.778,8.778,0,0,0-11.983-8.215,6.869,6.869,0,0,0-.768.366,12.838,12.838,0,1,1-6.269-24.042" transform="translate(-509.006 -796.701)" fill="#f47458"/>
    <path id="Path_2174" data-name="Path 2174" d="M1170.19,1162.9a12.767,12.767,0,0,1,1.961-6.243,6.674,6.674,0,0,0,.4-.747,8.718,8.718,0,0,0-7.584-12.294l-30.246-1.414-1.414,30.246a8.719,8.719,0,0,1-12.295,7.584,6.774,6.774,0,0,1-.747-.4,12.838,12.838,0,1,0-1.207,22.4,7.166,7.166,0,0,1,.794-.328,8.872,8.872,0,0,1,11.671,8.872l-1.4,29.986,68.918,3.222a29.468,29.468,0,0,0,30.813-28.06l3.222-68.918-30.146-1.409a8.778,8.778,0,0,0-8.766,11.586,6.8,6.8,0,0,0,.33.784,12.838,12.838,0,1,1-24.309,5.139" transform="translate(-934.936 -970.288)" fill="#f7cc7f"/>
    <path id="Path_2175" data-name="Path 2175" d="M638.816,505.192a12.764,12.764,0,0,1-1.348,6.4,6.7,6.7,0,0,0-.33.782,8.718,8.718,0,0,0,8.738,11.5l30.241-1.52L674.6,492.119a8.718,8.718,0,0,1,11.5-8.738,6.69,6.69,0,0,1,.782.33,12.838,12.838,0,1,0-.967-22.41,7.131,7.131,0,0,1-.759.4,8.872,8.872,0,0,1-12.475-7.7l-1.508-29.981-68.906,3.465A29.469,29.469,0,0,0,574.315,458.4L577.78,527.3l30.14-1.516a8.778,8.778,0,0,0,7.6-12.38,6.808,6.808,0,0,0-.4-.749,12.838,12.838,0,1,1,23.7-7.468" transform="translate(-487.841 -360.202)" fill="#50bfa5"/>
    <path id="Path_2176" data-name="Path 2176" d="M1306.958,502.109a12.766,12.766,0,0,1-6.328-1.667,6.652,6.652,0,0,0-.765-.369,8.718,8.718,0,0,0-11.927,8.149V538.5h30.279a8.719,8.719,0,0,1,8.15,11.927,6.691,6.691,0,0,1-.369.765,12.838,12.838,0,1,0,22.431.16,7.106,7.106,0,0,1-.364-.778,8.872,8.872,0,0,1,8.317-12.073H1386.4V469.508a29.469,29.469,0,0,0-29.469-29.469h-68.993v30.179a8.778,8.778,0,0,0,11.982,8.214,6.828,6.828,0,0,0,.768-.366,12.838,12.838,0,1,1,6.269,24.042" transform="translate(-1094.088 -373.809)" fill="#184655"/>
    <path id="Path_2177" data-name="Path 2177" d="M453.724,1740.091s-.457,3.179-1.244,4.2a8.1,8.1,0,0,0-1.063,1.4,4.132,4.132,0,0,0,.143,3.2c.187.408-.013.406.412.538a2.609,2.609,0,0,0,3.133-1.474,7.5,7.5,0,0,0,.615-2.709,9.828,9.828,0,0,1,1.03-4.354Z" transform="translate(-383.246 -1478.185)" fill="#f7a491"/>
    <path id="Path_2178" data-name="Path 2178" d="M556.748,1749.751a30.083,30.083,0,0,1,.053,4.75c-.123.624-.806,1.908-.493,2.495a1.576,1.576,0,0,0,.672.734l8.124.131c.443.007.15-.278-.207-.542a16.381,16.381,0,0,0-2.921-1.619c-.122-.059-.565-.342-.724-.439a5.648,5.648,0,0,1-1.162-1.029c-.583-.652-.634-3.808-.634-3.808Z" transform="translate(-472.508 -1486.391)" fill="#f7a491"/>
    <path id="Path_2179" data-name="Path 2179" d="M558.079,1428.12s1.023,5.82.351,9.635-3.9,39.182-3.9,39.182l-3.583.2s-.751-14.774-.617-16.828a31.908,31.908,0,0,1,1.2-5.493l-.357-11.928,4.521-15.67Z" transform="translate(-467.489 -1212.407)" fill="#355389"/>
    <path id="Path_2180" data-name="Path 2180" d="M475.313,1417.6s-2.821,4.256-3.493,7.778.493,14.346-.8,18.961c-.7,2.5-3.35,6.357-3.753,9.585s-1.984,11.685-1.984,11.685l3.581.711,8.322-21.12,6.528-19.089,1.672-9.832Z" transform="translate(-395.253 -1203.114)" fill="#466eb6"/>
    <path id="Path_2181" data-name="Path 2181" d="M516.065,1264.114s-3.735-.238-5.213,1.376,3.278,14.384,3.547,16.438-1.37,7.517-1.37,7.517,8.774,1.77,11.282.107c0,0,.269-14.774,0-16.241a43.464,43.464,0,0,0-3.045-8.023c-.537-.587-5.2-1.174-5.2-1.174" transform="translate(-433.721 -1073.839)" fill="#f7cc7f"/>
    <path id="Path_2182" data-name="Path 2182" d="M547.617,1230.478s-.019.11-.054.3a28.476,28.476,0,0,1-1.241,4.706c-.524.992,1.792,4.156,4.021,3.77.664-.115-.561-2.907-.5-3.2.112-.566.265-1.339.422-2.13l.261-1.325c.238-1.21.433-2.2.433-2.2Z" transform="translate(-464.03 -1045.204)" fill="#f7a491"/>
    <path id="Path_2183" data-name="Path 2183" d="M554.418,1230.776c.035-.187.054-.3.054-.3l3.34-.083s-.195.99-.433,2.2l-.26,1.318a3.127,3.127,0,0,1-1.595-.8,4.222,4.222,0,0,1-1.208-1.8c.041-.211.075-.394.1-.534" transform="translate(-470.885 -1045.205)" fill="#f47458"/>
    <path id="Path_2184" data-name="Path 2184" d="M549.618,1180.341a3.007,3.007,0,0,0-2.561,1.1c-.987,1.279-2.05,5.235.4,7.386s4.874-.284,5.233-2.865.5-5.711-3.073-5.618" transform="translate(-463.783 -1002.677)" fill="#f7a491"/>
    <path id="Path_2185" data-name="Path 2185" d="M587.936,1209.5c-.293.57-.784.886-1.1.705s-.33-.79-.037-1.36.784-.886,1.1-.705.33.79.037,1.36" transform="translate(-498.303 -1026.26)" fill="#f7a491"/>
    <path id="Path_2186" data-name="Path 2186" d="M541.485,1177.356s-2.1,3.762-3.608,3.936-1.7,2.173-1.7,2.173.538-4.606,2.028-5.494a5.523,5.523,0,0,1,3.283-.614" transform="translate(-455.474 -1000.115)" fill="#13375b"/>
    <path id="Path_2187" data-name="Path 2187" d="M453.791,1778.915a4,4,0,0,1-3.926-1.644,4.323,4.323,0,0,0-.373,3.215c.321.7,1.26.682,2,.71a1.931,1.931,0,0,0,1.775-1.089,6.532,6.532,0,0,0,.525-1.193" transform="translate(-381.688 -1509.769)" fill="#f47458"/>
    <path id="Path_2188" data-name="Path 2188" d="M561.15,1785.324a7.339,7.339,0,0,1-4.625-.182,3.75,3.75,0,0,0-.372,1.938c.2.576.478.707.726.713,1.962.052,7.188.122,8.685.141a.245.245,0,0,0,.19-.4c-.371-.444-4.444-2.11-4.6-2.208" transform="translate(-472.406 -1516.455)" fill="#f47458"/>
    <path id="Path_2189" data-name="Path 2189" d="M541.222,1204.022c.122.668-.124,1.281-.55,1.368s-.87-.383-.993-1.051.124-1.281.55-1.369.87.383.993,1.051" transform="translate(-458.424 -1021.9)" fill="#f7a491"/>
    <path id="Path_2190" data-name="Path 2190" d="M566.43,1225.384l1.9.085a.831.831,0,0,1-.912.706c-1.02-.017-.987-.791-.987-.791" transform="translate(-481.175 -1040.949)" fill="#fff"/>
    <path id="Path_2191" data-name="Path 2191" d="M1629.614,219.259c.236.01.884.227,1.832,2.018,1.21,2.287,2.979,9.2,2.979,9.2l-5.28,1.966-.678-1.442-1.117-11.1s2.2-.638,2.264-.636" transform="translate(-1382.413 -186.258)" fill="#dd513a"/>
    <path id="Path_2192" data-name="Path 2192" d="M1543.174,212.642a32.251,32.251,0,0,1,6.979,1s1.273,10.947-1.147,19.266c-.542,1.862.448,7.719.448,7.719l-15.644-.206s1.854-14.16,1.155-16.447-.715-10.258-.715-10.258.107-.017,3.515-.606a35.426,35.426,0,0,1,5.408-.464" transform="translate(-1302.952 -180.637)" fill="#f47458"/>
    <path id="Path_2193" data-name="Path 2193" d="M1558.815,533.543s.346,3.995.983,5.1-.034,2.987-.067,3.245-1.34.627-3.416.406-2.043-.7-1.876-1.475,1.272-1.77,1.34-2.507a19.212,19.212,0,0,0-.636-3.392Z" transform="translate(-1320.417 -453.238)" fill="#f7a491"/>
    <path id="Path_2194" data-name="Path 2194" d="M1546.184,375.259s10.8-.6,13.211.861-1.713,8.628-1.713,8.628-7.515-.346-22.234.5c-3.485.2-3.786-9.088-3.134-9.857s13.87-.136,13.87-.136" transform="translate(-1301.446 -318.57)" fill="#e0973f"/>
    <path id="Path_2195" data-name="Path 2195" d="M1555.338,572.749c-2.138-.228-1.874-1.278-1.7-2.076a7.06,7.06,0,0,1,1.087-1.645,3.566,3.566,0,0,0,1.431.7,5.351,5.351,0,0,0,3.128-.632,10.32,10.32,0,0,1,.286,2.758c-.034.266-2.092,1.126-4.23.9" transform="translate(-1319.698 -483.383)" fill="#dd513a"/>
    <path id="Path_2196" data-name="Path 2196" d="M1527.23,383.591c.431,3.265,2.568,19.518,2.568,19.518l-4.957.615s-6.1-21.214-5.783-24.459,2.594-3.518,2.594-3.518,4.436-.8,5.578,7.844" transform="translate(-1290.41 -319.176)" fill="#f7cc7f"/>
    <path id="Path_2197" data-name="Path 2197" d="M1521.836,227.742c1.463-.549,2.178,12.631,2.375,18.055a63.728,63.728,0,0,0,8.229-.082c.529-.04,1.748-.486,2.273-.555a5.261,5.261,0,0,1,1.292-.061,24.374,24.374,0,0,1,3.028,1.363c.286.3,1.061,1.058.93,1.385s-1.489-.913-1.489-.913l-.664-.373c.827.807,2.4,1.871,2.176,2.258s-1.643-.7-2.657-1.437c.869.785,1.949,2.19,1.7,2.409-.224.2-1.452-1.43-2.765-1.9-.487-.174-.971.307-1.354.365a2.751,2.751,0,0,1-.991.055l-1.422-.4c-.484.044-.5.33-.985.435-.568.121-1.5.248-2.222.425-4.163,1.017-5.552,1.49-6.827,1.489-3.861,0-4.085-21.22-.628-22.517" transform="translate(-1290.707 -193.45)" fill="#f7a491"/>
    <path id="Path_2198" data-name="Path 2198" d="M1516.564,233.164c-.274-5.556-.234-12.405,2.881-13.574,1.229-.461,3.4,2.311,3.006,13.687a23.406,23.406,0,0,1-5.887-.113" transform="translate(-1288.212 -186.5)" fill="#dd513a"/>
    <path id="Path_2199" data-name="Path 2199" d="M1658.287,556.244a2.7,2.7,0,0,0,.342,2.3c.775.917,3.993,1.817,4.415,2.313a1.392,1.392,0,0,1,.39.92l-9.032-.249.1-2.728.416-1.96Z" transform="translate(-1405.393 -472.523)" fill="#f7a491"/>
    <path id="Path_2200" data-name="Path 2200" d="M1656.337,573.415s-2.321.939-3.442.383-1.087-.71-1.412-.5-.441,2.764-.441,2.764l10.156.3c.707-.016,1.064-.537.49-.982a8.241,8.241,0,0,0-1.108-.658,31.741,31.741,0,0,0-4.245-1.3" transform="translate(-1402.54 -486.933)" fill="#dd513a"/>
    <path id="Path_2201" data-name="Path 2201" d="M1658.928,379.072c.7-1.469,2.286-3.382,5.079-2.23,2.664,1.1,3.379,3.8,2.539,6.564s-6.375,19.02-6.568,21.255l-4.419.029s.8-12.871,1-15.982a30.136,30.136,0,0,1,2.368-9.637" transform="translate(-1406.377 -319.823)" fill="#f7cc7f"/>
    <path id="Path_2202" data-name="Path 2202" d="M1563.248,294.18h-14.77a.963.963,0,0,0-.891.6l-4.548,11.13H1534.9a.413.413,0,0,0,0,.827h23.176a1.617,1.617,0,0,0,1.476-.958l4.579-10.236a.966.966,0,0,0-.879-1.362" transform="translate(-1303.523 -249.903)"/>
    <path id="Path_2203" data-name="Path 2203" d="M1663.726,331.158a.813.813,0,1,1-.609-1.064.869.869,0,0,1,.609,1.064" transform="translate(-1411.954 -280.4)" fill="#fff"/>
    <path id="Path_2204" data-name="Path 2204" d="M1572.942,117.419a11.3,11.3,0,0,1-1.307-.523,6.56,6.56,0,0,0-1.49-.561,3.592,3.592,0,0,0-3.022.806c-.974,1.057-2.705.191-2.357,5.726.395,6.265,3.878,5.578,3.963,5.472s3.107-4.008,3.107-4.008,1.057,2.312,1.057,2.227,5.4-7.337.049-9.138" transform="translate(-1329.21 -98.785)" fill="#0e2e35"/>
    <path id="Path_2205" data-name="Path 2205" d="M1581.578,179.53l.3,2.239s.674,3.225-.193,3.847-3.686-3.939-3.686-3.939l.3-5.673Z" transform="translate(-1340.49 -149.514)" fill="#f7a491"/>
    <path id="Path_2206" data-name="Path 2206" d="M1579.339,177.843a6.424,6.424,0,0,0,3.632,3.586l-.255-1.9-3.28-3.526Z" transform="translate(-1341.628 -149.514)" fill="#f47458"/>
    <path id="Path_2207" data-name="Path 2207" d="M1579.226,134.774a2.985,2.985,0,0,1,3.438,3.019,22.692,22.692,0,0,1-.252,2.871c-.4,2.584-2.162,4.86-3.328,4.657a5.6,5.6,0,0,1-3.583-6.11c.319-2.27,1.8-4.126,3.725-4.437" transform="translate(-1338.316 -114.457)" fill="#f7a491"/>
    <path id="Path_2208" data-name="Path 2208" d="M1571.644,160.693a.869.869,0,1,1-.661-1.175.962.962,0,0,1,.661,1.175" transform="translate(-1333.65 -135.5)" fill="#f7a491"/>
    <path id="Path_2209" data-name="Path 2209" d="M1574.317,133.634s1.41.35,1.933-.556,2.394-2.863,4.771-2.052-2.092-1.972-2.283-1.972-2.473-.016-2.473-.016-1.759,1.448-1.823,1.607-.571,1.893-.571,1.893Z" transform="translate(-1336.984 -109.616)" fill="#0e2e35"/>
    <path id="Path_2210" data-name="Path 2210" d="M1593.91,184.71l2.565.49a1.142,1.142,0,0,1-1.379.783c-1.383-.223-1.186-1.274-1.186-1.274" transform="translate(-1353.997 -156.909)" fill="#fff"/>
    <path id="Path_2211" data-name="Path 2211" d="M1305.693,1362.7a2.651,2.651,0,0,0,.279.677,25.7,25.7,0,0,0,2.67,3.553l1.444-3.252s-.236-1.021-.644-2.481a8.353,8.353,0,0,0-3.75,1.5" transform="translate(-1109.169 -1156.32)" fill="#f8a492"/>
    <path id="Path_2212" data-name="Path 2212" d="M1294.939,1288.26s-8.052,3.467-8.312,3.4a21.4,21.4,0,0,1-3.336-10.225c-.015-2.279,2.352-5.021,4.993-4.479,1.329.273,1.309.643,3.276,3.5a32.931,32.931,0,0,1,3.38,7.8" transform="translate(-1090.139 -1084.7)" fill="#13375b"/>
    <path id="Path_2213" data-name="Path 2213" d="M1403.308,1765.472s-.191,3.162-.192,3.169a17.4,17.4,0,0,0-.347,1.758c0,1.371,6.511-1.164,5.052-1.771-.132-.055-.824-.471-.867-.938-.067-.719-.237-2.174-.237-2.174Z" transform="translate(-1191.634 -1499.746)" fill="#f7a491"/>
    <path id="Path_2214" data-name="Path 2214" d="M1406.5,1786.034s-1.529.419-2.312.524-1.815-.778-2.369-.54c-.609.263-.586,2.626-.586,2.626s8.2.672,10.5-.023c.913-.276-2.111-1.61-5.236-2.587" transform="translate(-1190.333 -1517.165)" fill="#dd513a"/>
    <path id="Path_2215" data-name="Path 2215" d="M1314.817,1765.472s-.191,3.162-.192,3.169a17.332,17.332,0,0,0-.347,1.758c0,1.371,6.511-1.164,5.052-1.771-.132-.055-1.029-.782-1.073-1.248-.067-.719-.031-1.863-.031-1.863Z" transform="translate(-1116.462 -1499.746)" fill="#f7a491"/>
    <path id="Path_2216" data-name="Path 2216" d="M1317.741,1786.034s-1.529.419-2.312.524-1.815-.778-2.369-.54c-.609.263-.634,2.626-.634,2.626s8.234.784,10.551-.023c.9-.313-2.111-1.61-5.236-2.587" transform="translate(-1114.889 -1517.165)" fill="#dd513a"/>
    <path id="Path_2217" data-name="Path 2217" d="M1331.079,1242.7l5.734-8.033c.024-.07.076-.214.156-.434.289-.8.89-2.456,1.413-4.106l.006-.018c.164-.577.513-1.583.85-2.556.375-1.082.84-2.424.856-2.653-.014-.039-.042-.109-.077-.2a18.5,18.5,0,0,1-.6-2.411c-.064-.36-.128-1.235.3-1.235.673,0,.352.874.662,1.419a13.75,13.75,0,0,0,.466-1.82l.112-1.708c.022-.129-.115-1.071.356-1.071h.023c.424.031.414,1.033.59,2.727.056-.195.111-.43.154-.646a6.18,6.18,0,0,1,.143-.894c-.085-.472-.036-1.217.467-1.146.252.035.231,1.074.231,1.074,0,.142-.018,1.241-.01,1.458.052-.369.253-1.941.648-1.941.327,0,.353.423.346.758,0,.2-.21,1.9-.221,2.1.154-.259.336-1.76.489-1.76.638,0,.407,2.135.173,2.691a2.484,2.484,0,0,0-.072.3,5.25,5.25,0,0,1-.547,1.588c-.4.685-.953,1.774-1.037,1.941-.062.34-.254,1.564-.5,3.1-.1.659-.216,1.381-.334,2.129h-.006c-.022.162-.141.677-.595,2.608a23.2,23.2,0,0,1-.713,2.806c-.27.477-6.453,8.874-6.716,9.231l-.155.211Z" transform="translate(-1130.734 -1034.565)" fill="#f7a491"/>
    <path id="Path_2218" data-name="Path 2218" d="M1394.638,1251.37s-.465-1.19-1.294-1.193a.953.953,0,0,1,.86.147,1.638,1.638,0,0,1,.434,1.045" transform="translate(-1183.628 -1061.972)" fill="#f47458"/>
    <path id="Path_2219" data-name="Path 2219" d="M1317.708,1241.528l-.738,4.668s2.813,2.259,4.452,1.782c1.375-.4.432-2.2.432-2.2a11.687,11.687,0,0,1-.508-3.8c.225-1.306-3.639-.454-3.639-.454" transform="translate(-1118.749 -1054.43)" fill="#f7a491"/>
    <path id="Path_2220" data-name="Path 2220" d="M1321.6,1242.941a11.5,11.5,0,0,0,3.183.9,6.206,6.206,0,0,1-.075-1.855c.1-.6-.663-.745-1.519-.725-1.121.1-2.119.271-2.119.271l-.142.9a2.316,2.316,0,0,0,.672.514" transform="translate(-1122.114 -1054.432)" fill="#fe875e"/>
    <path id="Path_2221" data-name="Path 2221" d="M1298.248,1193.13c-.116,0,1.112,5.216,3.012,6.113s4.734.429,5.266-.975c.588-1.554-1.557-6.874-4.23-7.55s-4.048,2.412-4.048,2.412" transform="translate(-1102.838 -1011.418)" fill="#f7a491"/>
    <path id="Path_2222" data-name="Path 2222" d="M1287.365,1174.064a5.982,5.982,0,0,0-2.449,2.706c-.713.338-1.575,1.069-1.988,3.04a4.273,4.273,0,0,0,3.218,4.852,2.915,2.915,0,0,1,2.214,1.831l.218-1.366a5.405,5.405,0,0,0-1.068-1.784c-.642-.595.3-1.463.387-2.17.064-.544-.337-1.6-.25-2.5a6.167,6.167,0,0,1,2.116-2.014c1.791-.68-.45-3.721-2.4-2.6" transform="translate(-1089.757 -997.143)" fill="#13375b"/>
    <path id="Path_2223" data-name="Path 2223" d="M1309.864,1223.787c.248.6.147,1.2-.227,1.336s-.878-.243-1.126-.845-.147-1.2.227-1.336.878.243,1.126.845" transform="translate(-1111.448 -1038.851)" fill="#f7a491"/>
    <path id="Path_2224" data-name="Path 2224" d="M1365.3,1355.627l11.061-1.8s-1.259-3.168-1.708-3.168-8.364,3.455-8.364,3.455l-.629,1.264Z" transform="translate(-1159.802 -1147.364)" fill="#f8a492"/>
    <path id="Path_2225" data-name="Path 2225" d="M1317.017,1431.22a36.417,36.417,0,0,0-.654,9.379c.45,4.045.485,18.413.485,18.413L1315.132,1482l4.071.089s4.828-22.978,4.738-22.389,1.619-16.179,1.619-16.179l-5.756-12.808Z" transform="translate(-1117.188 -1215.374)" fill="#184655"/>
    <path id="Path_2226" data-name="Path 2226" d="M1333.286,1422.406s-.719,4.8.18,6.91,7.713,22.777,7.8,24.462,2.356,20.313,2.356,20.313l4.734-.133,1.024-20.711-2.144-26.03-2.083-6.581Z" transform="translate(-1132.378 -1206.813)" fill="#13375b"/>
    <path id="Path_2227" data-name="Path 2227" d="M1316.969,1265.56a4.253,4.253,0,0,0,2.256.677,7.5,7.5,0,0,0,2.628-1.094l-.214-.725s-2.817-.41-2.888-.366-1.783,1.507-1.783,1.507" transform="translate(-1118.748 -1073.794)" fill="#f7a491"/>
    <path id="Path_2228" data-name="Path 2228" d="M1399.639,1327.523s4.184,3.948,6.073,3.274,2.67-2.978-1.938-6.35c-4.124-3.017-4.135,3.076-4.135,3.076" transform="translate(-1188.975 -1124.389)" fill="#f8a492"/>
    <path id="Path_2229" data-name="Path 2229" d="M1310.207,1287.552c-.621-3.381-5.126-13.9-5.486-15.842-.175-.943-2.6-.963-4.919-.84-2.444.13-4.873.439-4.873.439a7.434,7.434,0,0,0-3.116,1.248c-.952.892-1.205,3.36.164,8.043,1.081,3.7,2.42,5.727,3.083,8.421.134.9.249,1.795.4,2.836.244,4.027,0,9.347,0,9.347s11.781,2.444,16.188-1.264c0,0-.8-8.923-1.439-12.387" transform="translate(-1096.708 -1079.543)" fill="#355389"/>
    <path id="Path_2230" data-name="Path 2230" d="M1364.038,1281.044s-4.623,3.816-4.893,3.816c-.174,0-6.6-4.725-8.079-8.607a3.394,3.394,0,0,1,2.864-4.539c1.361.005,1.966.356,4.664,2.632a34.444,34.444,0,0,1,5.444,6.7" transform="translate(-1147.535 -1080.305)" fill="#466eb6"/>
    <path id="Path_2231" data-name="Path 2231" d="M889,173.858c.757-1.823,1.528-3.65,3.494-4.573a4.4,4.4,0,0,1,4.666.6c4,3.011.515,6.329,5.074,12.04,1.416,1.774,3.131,3.207,3.979,5.286,1.188,2.91-.227,4.308-2.495,5.7-10.851,6.67-16.539-7.024-16.334-10.157a50.424,50.424,0,0,1,1.616-8.9" transform="translate(-753.812 -143.449)" fill="#13375b"/>
    <path id="Path_2232" data-name="Path 2232" d="M822.371,306.517c.458-.072,1.568-.868,1.961-.941.3-.056.961-.156,1.242-.2.343-1.281,2.086-8.268,2.281-10.315.212-2.219,1.78-11.817,1.78-11.817l4.063.738s-1.687,7.383-2.154,10.964c-.4,3.075-3.775,9.989-4.2,10.719,0,.018,0,.035,0,.053-.065,1.085-.588.723-.588.723l-.85.217s-3.006.289-3.2.362-.784-.434-.327-.506" transform="translate(-698.449 -240.615)" fill="#f7a491"/>
    <path id="Path_2233" data-name="Path 2233" d="M869.7,245.969c-2.872.974-4.5,8.781-4.5,8.781s4.506,1.258,5.66.6c0,0,1.31-5.808,1.78-5.605Z" transform="translate(-734.971 -208.948)" fill="#6a97ce"/>
    <path id="Path_2234" data-name="Path 2234" d="M704.064,527.474a30.751,30.751,0,0,0-1.376,4.82c-.02.13.164.76.147.895-1.764,2.406-4.3,2.932-6.472,3.086,1.107-1.081,2.734-2.106,2.812-2.448a42.487,42.487,0,0,0,1.122-6.336c1.352.625,2.269.13,3.767-.016" transform="translate(-591.551 -448.083)" fill="#f7a491"/>
    <path id="Path_2235" data-name="Path 2235" d="M747.343,355.216l3.881,10.931s-6.237,1.174-8.569,1.6-15.359,1-15.689,1.228c-.245.172-2.936,8.876-4.138,13.675a11.293,11.293,0,0,1-4.94-.488c.671-6.867,3.095-17.747,3.871-18.931,1.264-1.929,25.585-8.016,25.585-8.016" transform="translate(-609.837 -301.752)" fill="#256653"/>
    <path id="Path_2236" data-name="Path 2236" d="M779.466,559.31a30.754,30.754,0,0,0-.448,4.992c.005.131.3.716.312.851-1.282,2.694-3.673,3.686-5.779,4.244.885-1.27,2.291-2.581,2.3-2.932a42.515,42.515,0,0,0-.085-6.434c1.445.361,2.253-.3,3.7-.722" transform="translate(-657.121 -475.127)" fill="#f7a491"/>
    <path id="Path_2237" data-name="Path 2237" d="M806.984,358.986l1.505,2.571a7.368,7.368,0,0,1-3.694,10.591l-.067.026c-2.21.857-14.9,3.857-15.182,4.146-.208.215-1.221,9.269-1.5,14.208a11.292,11.292,0,0,1-4.944.446c-.628-6.871-.286-18.012.254-19.321.88-2.132,23.63-12.669,23.63-12.669" transform="translate(-664.946 -304.954)" fill="#327f6b"/>
    <path id="Path_2238" data-name="Path 2238" d="M770.681,592.73c.338-.373,1.578,1.681,1.888,2.119a.98.98,0,0,1,.208.942c-.11.2-6.651,4.052-8.247,4.326a.8.8,0,0,1-.477-.127c-.624-.552,2.246-4.627,3.535-5.163a6.186,6.186,0,0,0,3.093-2.1" transform="translate(-648.979 -503.478)" fill="#13375b"/>
    <path id="Path_2239" data-name="Path 2239" d="M692.3,559.83c.4-.3,1.235,1.947,1.458,2.435a.979.979,0,0,1,.028.964c-.146.179-7.293,2.734-8.911,2.7a.8.8,0,0,1-.445-.215c-.509-.659,3.074-4.124,4.44-4.409a6.186,6.186,0,0,0,3.431-1.479" transform="translate(-581.374 -475.545)" fill="#13375b"/>
    <path id="Path_2240" data-name="Path 2240" d="M881.541,244.887h0a1.079,1.079,0,0,1-.29-.06,5,5,0,0,0-2.607.148c-1.1.466-2.814,4.816-2.712,9.281.041.683.082,1.294.118,1.72.279,3.373,1.246,9.7,1.3,9.736,1.316.847,9.259-2.438,9.8-3.159s.868-9.489,1.133-9.926l.522-7.625c-.921-.275-5.855-.125-7.267-.115" transform="translate(-744.09 -207.889)" fill="#9bc1f9"/>
    <path id="Path_2241" data-name="Path 2241" d="M911.466,219.379a20.321,20.321,0,0,0-.409,3.688c.1,1.043-.39,4.406-2.6,4.417s-.419-4.275-.211-5.3A39.07,39.07,0,0,0,908.5,218Z" transform="translate(-770.796 -185.188)" fill="#f7a491"/>
    <path id="Path_2242" data-name="Path 2242" d="M914.626,219.587c.035-.866.046-1.588.046-1.588l2.961,1.38s-.1.541-.21,1.23a2.586,2.586,0,0,1-2.8-1.022" transform="translate(-776.963 -185.188)" fill="#f47458"/>
    <path id="Path_2243" data-name="Path 2243" d="M912.378,176.691a3.669,3.669,0,0,1,1.558,2.005c.417,1.372-.058,4.913-3.006,5.768s-4.225-1.949-3.618-4.142,1.928-4.968,5.065-3.631" transform="translate(-770.625 -149.8)" fill="#f7a491"/>
    <path id="Path_2244" data-name="Path 2244" d="M905.646,190.774c.058.589.382,1.039.726,1.005s.574-.538.516-1.127-.382-1.039-.726-1.005-.574.538-.516,1.127" transform="translate(-769.327 -161.102)" fill="#f7a491"/>
    <path id="Path_2245" data-name="Path 2245" d="M939.5,177.474s.535,3.95,1.811,4.663.743,2.465.743,2.465,1.158-4.069.149-5.375a5.622,5.622,0,0,0-2.7-1.752" transform="translate(-798.093 -150.762)" fill="#13375b"/>
    <path id="Path_2246" data-name="Path 2246" d="M945.05,208.833c-.346.515-.345,1.122,0,1.356s.911.007,1.257-.508.345-1.122,0-1.356-.911-.007-1.257.508" transform="translate(-802.587 -176.892)" fill="#f7a491"/>
    <path id="Path_2247" data-name="Path 2247" d="M917.881,213.68l2.078.523a.944.944,0,0,1-1.17.586c-1.122-.248-.907-1.109-.907-1.109" transform="translate(-779.714 -181.519)" fill="#fff"/>
    <path id="Path_2248" data-name="Path 2248" d="M986.506,433.122l8.957-.45s-3.675,2.641-3.75,2.641-2.927-1.126-3.052-1.126-2.155-1.065-2.155-1.065" transform="translate(-838.024 -367.55)" fill="#50bfa5"/>
    <path id="Path_2249" data-name="Path 2249" d="M2153.473,1766.331s.175,3.107.176,3.113c.064.394.318,1.369.318,1.728,0,1.347-5.977-1.143-4.637-1.74.121-.054.757-.463.8-.921.062-.707.217-2.136.217-2.136Z" transform="translate(-1825.662 -1500.476)" fill="#f7a491"/>
    <path id="Path_2250" data-name="Path 2250" d="M2122.067,1786.706a21.467,21.467,0,0,0,2.122.515c.719.1,1.666-.764,2.175-.53.559.258.538,2.579.538,2.579s-7.525.661-9.641-.023c-.838-.271,1.938-1.582,4.807-2.542" transform="translate(-1798.456 -1517.737)" fill="#f7cc7f"/>
    <path id="Path_2251" data-name="Path 2251" d="M2219.6,1765.262s.175,3.107.176,3.113c.064.394.318,1.369.318,1.728,0,1.347-5.976-1.144-4.637-1.74.122-.054.944-.768.985-1.226.062-.707.029-1.831.029-1.831Z" transform="translate(-1881.835 -1499.568)" fill="#f7a491"/>
    <path id="Path_2252" data-name="Path 2252" d="M2188.619,1785.463a21.593,21.593,0,0,0,2.122.515c.719.1,1.666-.764,2.174-.53.56.258.582,2.579.582,2.579a93.614,93.614,0,0,1-9.685-.023c-.871-.13,1.938-1.582,4.807-2.541" transform="translate(-1854.983 -1516.681)" fill="#f7cc7f"/>
    <path id="Path_2253" data-name="Path 2253" d="M2188.042,1434.6a38.225,38.225,0,0,1,.6,9.215c-.412,3.974-.445,18.09-.445,18.09l1.9,22.579-4.067.095s-4.432-22.576-4.349-22-1.486-15.9-1.486-15.9l5.283-12.584Z" transform="translate(-1852.051 -1218.253)" fill="#355389"/>
    <path id="Path_2254" data-name="Path 2254" d="M2156.686,1414.918s4.589,4.833,2.882,10.112c-.686,2.12-7.081,22.377-7.163,24.033s-2.162,19.958-2.162,19.958l-4.346-.131-.94-20.348,1.242-27.416,2.638-4.624Z" transform="translate(-1822.113 -1201.955)" fill="#466eb6"/>
    <path id="Path_2255" data-name="Path 2255" d="M2036.824,1274.2a40.2,40.2,0,0,1,4.773-4.062,15.538,15.538,0,0,1,2.742-1.938c1.169-.4,3.171-1.478,6.067,2.911,2.073,3.141,15.149,19.4,17.3,19.952l-14.019,6.707c-.384-3.2-7.313-9.255-8.309-10.384-2.229-2.524-9.974-11.6-8.551-13.185" transform="translate(-1730.109 -1076.971)" fill="#f47458"/>
    <path id="Path_2256" data-name="Path 2256" d="M2029.773,1265.131l4.367,2.557s.123,3.728-1.3,4.7c-1.2.812-2.11-1.137-2.11-1.137a13.322,13.322,0,0,0-2.857-2.951c-1.234-.7,1.9-3.164,1.9-3.164" transform="translate(-1722.404 -1074.713)" fill="#f7a491"/>
    <path id="Path_2257" data-name="Path 2257" d="M2030.506,1266.773a9.136,9.136,0,0,1-1.133,2.828,7.079,7.079,0,0,0-1.5-1.305c-.569-.323-.207-1.022.348-1.681.783-.816,1.557-1.483,1.557-1.483l.839.491a3.91,3.91,0,0,1-.107,1.149" transform="translate(-1722.405 -1074.714)" fill="#f47458"/>
    <path id="Path_2258" data-name="Path 2258" d="M1999.977,1221.489c.073-.091,3.663,4.378,3.22,6.474s-2.613,4.009-4.121,3.483c-1.668-.582-4.771-5.842-3.658-8.4s4.559-1.56,4.559-1.56" transform="translate(-1694.882 -1037.478)" fill="#f7a491"/>
    <path id="Path_2259" data-name="Path 2259" d="M1990.221,1208.862a6.8,6.8,0,0,1,6.024-.122,5.172,5.172,0,0,1,2.145,6.2,3.048,3.048,0,0,0,.106,2.95l-1.244-.727a5.923,5.923,0,0,1-.822-2.038c-.094-.9-1.413-.744-2.057-1.154-.5-.316-1.128-1.341-1.93-1.874a6.394,6.394,0,0,0-3.012.31c-1.693.95-1.452-2.3.789-3.547" transform="translate(-1689.058 -1026.26)" fill="#13375b"/>
    <path id="Path_2260" data-name="Path 2260" d="M2035.215,1245.375c-.011.67.305,1.219.708,1.226s.738-.531.75-1.2-.306-1.219-.708-1.226-.738.531-.75,1.2" transform="translate(-1728.889 -1056.91)" fill="#f7a491"/>
    <path id="Path_2261" data-name="Path 2261" d="M2010.79,1267.778l1.9-1.421a1.05,1.05,0,0,1-.315,1.417c-1,.792-1.585,0-1.585,0" transform="translate(-1708.14 -1075.754)" fill="#fff"/>
    <path id="Path_2262" data-name="Path 2262" d="M1948.261,1343.75a20.719,20.719,0,0,1,1.342-2.464,5.839,5.839,0,0,1,.973-.836c3.167-1.852,11.415-6.628,11.736-7,.38-.439,6.01-9.792,6.01-9.792l-5.056-1.146-4.941,8.725c-.413.328-8.256,6.124-8.256,6.124s-1.56,1.219-2.412,1.789a6.773,6.773,0,0,1-1.214.541,7.716,7.716,0,0,0-1.514.753c-.206.181-.618.569-.863.806s-.542.5-.657.644a1.743,1.743,0,0,1-.446.283.292.292,0,0,0,.049.541,1.265,1.265,0,0,0,.766-.177c.568-.267,1.261-.987,1.3-.9s-.668,1.632-.737,1.813a20.673,20.673,0,0,0-.919,2.381c-.042.4.2.494.38.347.155-.126,1.456-2.528,1.456-2.528s.167-.306.231-.131-1.112,2.358-1.227,2.716-.023.652.308.526c.4-.153,1.516-2.56,1.516-2.56s.145-.3.243-.2-.933,1.945-.945,2.157a.277.277,0,0,0,.459.244,12.95,12.95,0,0,0,1.3-2.367s.12-.143.158-.042-.73,1.732-.673,1.971a.191.191,0,0,0,.228.16c.4,0,.93-1.691,1.406-2.387" transform="translate(-1650.384 -1123.458)" fill="#f8a492"/>
    <path id="Path_2263" data-name="Path 2263" d="M2066.5,1281.524s-1.646-.524-2.7-1.008c-.708-.324-3.793-1.859-3.793-1.859a67.862,67.862,0,0,1,2.229-7.629c3.3-7.4,7.05-2.3,7.559-1.108,1.138,2.663-3.293,11.6-3.293,11.6" transform="translate(-1749.948 -1076.383)" fill="#355389"/>
    <path id="Path_2264" data-name="Path 2264" d="M1339.04,1227.517l1.567-1.172a.865.865,0,0,1-.26,1.169c-.822.653-1.307,0-1.307,0" transform="translate(-1137.497 -1041.766)" fill="#fff"/>
    <path id="Path_2265" data-name="Path 2265" d="M965.567,304.063c-.037-.094-.12-.1-.2-.1a20.884,20.884,0,0,1-2.459-.184,1.764,1.764,0,0,1-.4-.1,1.031,1.031,0,0,0-.68-.025,1.376,1.376,0,0,1-.378.04c-.413,0-1.593-.4-2.2-.509a.356.356,0,0,1-.283-.265c-.6-2.357-1.874-7.645-2.04-9.384-.212-2.224-1.748-12.25-1.748-12.25l-4.109,1.146s1.691,7.4,2.159,10.99c.361,2.771,3.13,8.651,4,10.342a1.733,1.733,0,0,0,1.6,1.32.51.51,0,0,1,.326.174,2.3,2.3,0,0,0,.518.451,1.212,1.212,0,0,1,.354.352c.175.255.331.521.485.788.1.177.21.233.362.191a.323.323,0,0,0,.238-.364,1.631,1.631,0,0,0-.246-.809.44.44,0,0,1,.033-.587,1.846,1.846,0,0,1,.309-.343.532.532,0,0,1,.42-.153,6.752,6.752,0,0,0,.9.167l.249.051.135.029c.021.005.458.053.608.053.12,0,.315.008.481.016a2.655,2.655,0,0,0,.478-.071.58.58,0,0,0,.384-.154c.044-.04.087-.085.065-.153a.152.152,0,0,0-.133-.1,5.752,5.752,0,0,1-.6-.1c.152,0,.626-.011.778-.015a.713.713,0,0,0,.522-.23c.056-.06.12-.119.083-.214" transform="translate(-807.924 -238.949)" fill="#f7a491"/>
    <path id="Path_2266" data-name="Path 2266" d="M940.732,246.416c2.028-.369,3.7,8.7,3.7,8.7s-4.506,1.258-5.66.6c0,0-1.31-5.808-1.78-5.605Z" transform="translate(-795.963 -209.319)" fill="#9bc1f9"/>
    <path id="Path_2267" data-name="Path 2267" d="M529.053,1298.325c.134-.385-1.736-.7-1.836-1.084s2.361-.419,2.45-.761c.162-.629-2.7-.133-2.641-.427s2.98-.952,2.664-1.457-2.961,1-3.041.656,2.585-1.177,2.537-1.928c-.026-.4-4.374,2-4.878,1.785s.542-2.106.141-2.386-1.554,3.837-1.831,3.974-6.152,3.49-8.242,4.023c-.254-.7-.8-1.645-1.026-2.307-1.173.835-2.044,1.254-3.254,2.015.877,2.2,2.125,4.6,2.736,4.88,1.86.84,9.056-5.127,10.492-6.148s2.26-.691,3.232-1.013,2.364.564,2.5.18" transform="translate(-433.319 -1098.139)" fill="#f7a491"/>
    <path id="Path_2268" data-name="Path 2268" d="M500.73,1279.89s-1.61-7.112-1.331-9.175,2.732-3.986,4.431-3.273,2.469,10.642,2.469,10.642Z" transform="translate(-424.206 -1076.548)" fill="#f7cc7f"/>
  </g>
</svg>
